<?xml version="1.0" encoding="UTF-8"?>
<svg width="81px" height="63px" viewBox="0 0 81 63" version="1.1" xmlns="http://www.w3.org/2000/svg" xmlns:xlink="http://www.w3.org/1999/xlink">
    <!-- Generator: Sketch 41.2 (35397) - http://www.bohemiancoding.com/sketch -->
    <title>Alert_icon</title>
    <desc>Created with Sketch.</desc>
    <defs>
        <polygon id="path-1" points="15 4 15 0 0 1.42108547e-14 0 4 15 4"></polygon>
    </defs>
    <g id="Page-1" stroke="none" stroke-width="1" fill="none" fill-rule="evenodd">
        <g id="Import-Tool-Wizard-Exit-Copy" transform="translate(-394.000000, -342.000000)">
            <g id="Alert_icon" transform="translate(394.000000, 342.000000)">
                <path d="M15.4747812,63 L12.5252188,63 C7.02723429,63 4,60.2724358 4,55.3198319 L4,44.3040946 L7.93274998,44.3040946 L7.93274998,55.3198319 C7.93274998,57.2692294 8.2847311,59.0196071 12.5252188,59.0196071 L15.4747812,59.0196071 C19.7152689,59.0196071 20.06725,57.2692294 20.06725,55.3198319 L20.06725,9 L24,9 L24,55.3198319 C24,60.2724358 20.9727657,63 15.4747812,63" id="Fill-1" fill="#F9B625"></path>
                <path d="M72.0155468,45 C71.5074633,45 71.0003721,44.8065116 70.612363,44.4185426 L62.5812694,36.3872868 C61.8062435,35.6123411 61.8062435,34.356155 62.5812694,33.5812093 C63.3562952,32.8062636 64.6126111,32.8062636 65.387637,33.5812093 L73.4187306,41.6124651 C74.1937565,42.3874109 74.1937565,43.6435969 73.4187306,44.4185426 C73.0307215,44.8065116 72.5236303,45 72.0155468,45" id="Fill-3" fill="#F9B625"></path>
                <g id="Group-7" transform="translate(66.000000, 24.000000)">
                    <mask id="mask-2" fill="white">
                        <use xlink:href="#path-1"></use>
                    </mask>
                    <g id="Clip-6"></g>
                    <path d="M13.0577496,4 L1.94225042,4 C0.869157063,4 0,3.104 0,2 C0,0.896 0.869157063,0 1.94225042,0 L13.0577496,0 C14.1298718,0 15,0.896 15,2 C15,3.104 14.1298718,4 13.0577496,4" id="Fill-5" fill="#F9B625" mask="url(#mask-2)"></path>
                </g>
                <path d="M63.9844532,19 C63.4763697,19 62.9692785,18.8065116 62.5812694,18.4185426 C61.8062435,17.6435969 61.8062435,16.3874109 62.5812694,15.6124651 L70.612363,7.5812093 C71.3873889,6.80626357 72.6437048,6.80626357 73.4187306,7.5812093 C74.1937565,8.35615504 74.1937565,9.61234109 73.4187306,10.3872868 L65.387637,18.4185426 C64.9996279,18.8065116 64.4925367,19 63.9844532,19" id="Fill-8" fill="#F9B625"></path>
                <path d="M36.326853,10.8924627 L47,6 L47,47 L36.326853,42.1075373 L35.5563397,41.7546517 L34.7124441,41.7546517 L4,41.7546517 L4,11.2453483 L34.7124441,11.2453483 L35.5563397,11.2453483 L36.326853,10.8924627 Z M0,7.3710614 L0,45.6279296 L34.724524,45.6279296 L51,53 L51,0 L34.724524,7.3710614 L0,7.3710614 Z" id="Fill-10" fill="#909B9C"></path>
                <path d="M55.6731488,19 L51,19 L51,22.9013515 L54.6788831,22.9013515 C54.8394415,23.5099624 55.0109698,24.5691793 55.0109698,26 C55.0109698,27.4308207 54.8384443,28.4900376 54.6778858,29.0986485 L51,29.0986485 L51,33 L55.6731488,33 C58.5671902,33 59,28.6139055 59,26 C59,23.3851191 58.5671902,19 55.6731488,19" id="Fill-12" fill="#909B9C"></path>
            </g>
        </g>
    </g>
</svg>