<?xml version="1.0" encoding="utf-8"?>
<!-- Generator: Adobe Illustrator 20.1.0, SVG Export Plug-In . SVG Version: 6.00 Build 0)  -->
<svg version="1.1" id="Layer_2" xmlns="http://www.w3.org/2000/svg" xmlns:xlink="http://www.w3.org/1999/xlink" x="0px" y="0px"
	 viewBox="0 0 80 80" style="enable-background:new 0 0 80 80;" xml:space="preserve">
<style type="text/css">
	.st0{fill:#636163;}
</style>
<path class="st0" d="M74.1,22.2L42.5,2.4c-1.4-0.9-3.6-0.9-5,0L5.9,22.2c-1.4,0.9-2.4,2.7-2.4,4.3v47c0,1.9,1.6,3.5,3.5,3.5h66
	c1.9,0,3.5-1.6,3.5-3.5v-47C76.5,25,75.5,23.1,74.1,22.2z M7.5,24.8L39.1,4.9c0.2-0.1,0.6-0.2,0.9-0.2c0.3,0,0.7,0.1,0.9,0.2
	l31.6,19.9c0.5,0.3,1,1.2,1,1.8v9.9L40.9,57c-0.4,0.3-1.3,0.3-1.8,0L6.5,36.5v-9.9C6.5,26,7,25.1,7.5,24.8z M73,74.1H7
	c-0.3,0-0.5-0.2-0.5-0.5V40.1l31,19.5c0.7,0.4,1.6,0.7,2.5,0.7c0.9,0,1.8-0.2,2.5-0.7l31-19.5v33.5C73.5,73.9,73.3,74.1,73,74.1z"/>
<path class="st0" d="M39.8,41.6c2.3,0,4.4-0.4,6.3-1.2v-2.5c-1.1,0.4-2.2,0.7-3.3,0.9c-1.1,0.2-2.1,0.3-3.1,0.3
	c-2.5,0-4.3-0.6-5.6-1.9c-1.3-1.3-1.9-3.2-1.9-5.6c0-1.8,0.3-3.4,1-4.8c0.7-1.4,1.7-2.4,3-3.2c1.3-0.7,2.8-1.1,4.6-1.1
	c1.4,0,2.6,0.3,3.7,0.9c1.1,0.6,1.9,1.4,2.5,2.5c0.6,1.1,0.9,2.3,0.9,3.7c0,1.3-0.2,2.4-0.5,3.2c-0.3,0.8-0.8,1.2-1.3,1.2
	c-0.7,0-1-0.6-1-1.8l0.3-6.4c-0.6-0.2-1.3-0.4-2.2-0.5c-0.9-0.1-1.7-0.2-2.5-0.2c-1.9,0-3.4,0.6-4.6,1.7c-1.2,1.1-1.8,2.6-1.8,4.5
	c0,1.6,0.4,2.9,1.3,3.8c0.9,0.9,2.1,1.4,3.7,1.4c1.5,0,2.7-0.6,3.6-1.7h0.2c0.2,0.5,0.6,0.9,1.1,1.2c0.5,0.3,1.1,0.5,1.7,0.5
	c1,0,1.8-0.3,2.6-0.9c0.7-0.6,1.3-1.4,1.7-2.5c0.4-1,0.6-2.2,0.6-3.5c0-1.9-0.4-3.6-1.2-5c-0.8-1.5-2-2.6-3.5-3.4
	c-1.5-0.8-3.2-1.2-5.2-1.2c-2.3,0-4.3,0.5-6.1,1.5c-1.8,1-3.1,2.4-4.1,4.2c-1,1.8-1.4,3.7-1.4,5.9c0,3.1,0.9,5.6,2.8,7.3
	C33.9,40.7,36.5,41.6,39.8,41.6z M42.1,30.6c-0.1,1.3-0.3,2.2-0.8,2.7c-0.4,0.6-1,0.8-1.8,0.8c-1.5,0-2.3-0.9-2.3-2.8
	c0-1.2,0.3-2.1,0.9-2.8c0.6-0.7,1.5-1,2.6-1c0.6,0,1.1,0,1.5,0.1L42.1,30.6z"/>
</svg>
