<?xml version="1.0" encoding="utf-8"?>
<!-- Generator: Adobe Illustrator 20.1.0, SVG Export Plug-In . SVG Version: 6.00 Build 0)  -->
<svg version="1.1" id="Layer_2" xmlns="http://www.w3.org/2000/svg" xmlns:xlink="http://www.w3.org/1999/xlink" x="0px" y="0px"
	 viewBox="0 0 80 80" style="enable-background:new 0 0 80 80;" xml:space="preserve">
<style type="text/css">
	.st0{fill:#636163;}
</style>
<g>
	<path class="st0" d="M73,66.4H7c-1.9,0-3.5-1.6-3.5-3.5v-47c0-1.9,1.6-3.5,3.5-3.5h66c1.9,0,3.5,1.6,3.5,3.5v47
		C76.5,64.8,74.9,66.4,73,66.4z M7,15.4c-0.3,0-0.5,0.2-0.5,0.5v47c0,0.3,0.2,0.5,0.5,0.5h66c0.3,0,0.5-0.2,0.5-0.5v-47
		c0-0.3-0.2-0.5-0.5-0.5H7z"/>
</g>
<g>
	<g>
		<path class="st0" d="M26.1,47.5h-9.8c-1.9,0-3.5-1.6-3.5-3.5v-8.2c0-1.9,1.6-3.5,3.5-3.5h9.8c1.9,0,3.5,1.6,3.5,3.5V44
			C29.6,45.9,28.1,47.5,26.1,47.5z M16.3,35.3c-0.3,0-0.5,0.2-0.5,0.5V44c0,0.3,0.2,0.5,0.5,0.5h9.8c0.3,0,0.5-0.2,0.5-0.5v-8.2
			c0-0.3-0.2-0.5-0.5-0.5H16.3z"/>
	</g>
	<g>
		<g>
			<path class="st0" d="M65.7,36.3h-21c-0.8,0-1.5-0.7-1.5-1.5s0.7-1.5,1.5-1.5h21c0.8,0,1.5,0.7,1.5,1.5S66.5,36.3,65.7,36.3z"/>
		</g>
		<g>
			<path class="st0" d="M65.7,46.5h-21c-0.8,0-1.5-0.7-1.5-1.5s0.7-1.5,1.5-1.5h21c0.8,0,1.5,0.7,1.5,1.5S66.5,46.5,65.7,46.5z"/>
		</g>
	</g>
</g>
</svg>
