<?xml version="1.0" encoding="utf-8"?>
<!-- Generator: Adobe Illustrator 20.1.0, SVG Export Plug-In . SVG Version: 6.00 Build 0)  -->
<svg version="1.1" id="Layer_2" xmlns="http://www.w3.org/2000/svg" xmlns:xlink="http://www.w3.org/1999/xlink" x="0px" y="0px"
	 viewBox="0 0 80 80" style="enable-background:new 0 0 80 80;" xml:space="preserve">
<style type="text/css">
	.st0{fill:#636163;}
</style>
<g>
	<path class="st0" d="M62.6,34.1h-13c-0.6,0-1,0.4-1,1s0.4,1,1,1h13c0.6,0,1-0.4,1-1S63.1,34.1,62.6,34.1z"/>
	<path class="st0" d="M71.3,12.1c-0.2-0.4-0.8-1.3-2.4-1.3H11.1c-1.6,0-2.2,0.9-2.4,1.3c-0.2,0.4-0.5,1.5,0.7,2.6l17,17.9
		c0.6,0.6,1.3,1.1,2.2,1.4v31.1c0,1.1,0.5,1.9,1.2,2.4c0.4,0.2,0.9,0.4,1.3,0.4c0.5,0,0.9-0.1,1.4-0.3l16.2-8.1
		c1.5-0.7,2.6-2.6,2.6-4.2v-7c0,0,0,0,0,0c1.5,0.5,3,0.8,4.7,0.8c7.7,0,14-6.3,14-14c0-5.2-2.9-9.8-7.2-12.2h0l7.7-8.1v0
		C71.7,13.6,71.4,12.5,71.3,12.1z M47.4,56.9l-15.8,7.9V34.6h10.5c0,0,0,0,0,0c0,0.2,0,0.4,0,0.5c0,4.9,2.5,9.2,6.3,11.7v8.5
		C48.4,55.9,47.9,56.6,47.4,56.9z M49.8,47.6c0,0,0.1,0,0.1,0.1C49.9,47.6,49.8,47.6,49.8,47.6z M68.1,35.1c0,6.6-5.4,12-12,12
		c-6.6,0-12-5.4-12-12c0-6.6,5.4-12,12-12C62.7,23.1,68.1,28.5,68.1,35.1z M59.9,21.7c-1.2-0.3-2.5-0.5-3.8-0.5
		c-6.5,0-12,4.4-13.5,10.5c0,0,0,0,0,0H30.9c-0.7,0-1.8-0.5-2.3-1l-16-16.8h54.8L59.9,21.7z M42.2,33.1C42.2,33,42.2,33,42.2,33.1
		C42.2,33,42.2,33,42.2,33.1z"/>
</g>
</svg>
